<?xml version="1.0" encoding="UTF-8"?>
<svg enable-background="new 0 0 600 106" version="1.1" viewBox="0 0 600 106" xml:space="preserve" xmlns="http://www.w3.org/2000/svg">
<style type="text/css">
	.st0{fill:#00D154;}
	.st1{fill:#FFFFFF;}
</style>

	
		<path class="st0" d="m123.33 0.37h-116.95c-3.23 0-6.08 2.62-6.36 5.85s2.1 5.85 5.34 5.85h84.28c-4.51 3.37-8.67 7.2-12.07 11.7h-32.3c-3.23 0-6.08 2.62-6.36 5.85s2.1 5.85 5.34 5.85h26.62c-1.66 3.73-2.85 7.64-3.67 11.7h-53.22c-3.23 0-6.08 2.62-6.36 5.85s2.1 5.85 5.34 5.85h53.22c0.1 4.06 0.62 7.97 1.62 11.7h-9.08c-3.23 0-6.08 2.62-6.36 5.85s2.1 5.85 5.34 5.85h14.76c8.22 14.09 23.47 23.39 41.67 23.39 29.02 0 54.69-23.61 57.23-52.63s-19-52.66-48.03-52.66zm-1.02 11.7c20.57 0 36.14 15.3 37.27 35.09h-23.88c-1.83-6.79-7.83-11.7-15.44-11.7s-14.47 4.9-17.49 11.7h-23.87c4.6-19.79 22.85-35.09 43.41-35.09zm-4.09 46.78c-3.23 0-5.62-2.62-5.34-5.85s3.13-5.85 6.36-5.85 5.62 2.62 5.34 5.85-3.14 5.85-6.36 5.85zm-40.34 0h23.88c1.33 4.95 4.89 8.85 9.69 10.62l-2.09 23.88c-17.64-2.6-30.46-16.64-31.48-34.5zm43.17 34.49 2.09-23.88c5.11-1.77 9.35-5.66 11.55-10.62h23.88c-4.16 17.87-19.44 31.91-37.52 34.5z"/>
		
			<ellipse class="st0" transform="matrix(.7224 -.6915 .6915 .7224 -42.345 47.301)" cx="37.74" cy="76.39" rx="7.64" ry="7"/>
		<ellipse class="st0" transform="matrix(.7224 -.6915 .6915 .7224 -13.731 25.014)" cx="24.29" cy="29.61" rx="7.64" ry="7"/>
	
	
		<polygon class="st1" points="249.09 30.55 249.62 24.49 208.94 24.49 208.34 31.28 239.48 31.28 204.49 75.36 203.95 81.51 245.44 81.51 246.04 74.72 214.01 74.72"/>
		<path class="st1" d="m284.58 48.35c-0.98-2.32-2.54-4.11-4.66-5.38-2.13-1.27-4.67-1.9-7.64-1.9-3.45 0-6.57 0.84-9.36 2.51s-5.06 4.04-6.81 7.12c-1.75 3.07-2.81 6.66-3.17 10.76-0.35 4.04 0.07 7.63 1.28 10.76s3.07 5.55 5.59 7.28c2.52 1.72 5.48 2.59 8.87 2.59 2.97 0 5.64-0.63 8.01-1.9 2.37-1.26 4.26-3.08 5.65-5.46l-0.59 6.79h8.09l4.99-57.02h-8.17l-2.08 23.85zm-4.86 23.62c-2.12 2.43-4.97 3.64-8.53 3.64-3.5 0-6.15-1.25-7.92-3.76s-2.47-5.97-2.08-10.39 1.67-7.83 3.85-10.23 5.05-3.6 8.61-3.6 6.19 1.21 7.89 3.64 2.36 5.88 1.97 10.35c-0.4 4.47-1.66 7.92-3.79 10.35z"/>
		<path class="st1" d="m321.29 41.07c-2.75 0-5.66 0.44-8.73 1.34-3.07 0.89-5.72 2.06-7.95 3.52l1.92 5.74c4.72-2.75 9.31-4.12 13.79-4.12 2.86 0 4.86 0.67 6.01 2.02s1.59 3.53 1.33 6.55l-0.21 2.35h-1.86c-5.98 0-10.72 0.35-14.2 1.05-3.49 0.7-6.04 1.88-7.67 3.52-1.63 1.65-2.56 3.9-2.81 6.75-0.2 2.32 0.22 4.42 1.26 6.31 1.05 1.89 2.61 3.36 4.67 4.41 2.07 1.05 4.39 1.58 6.98 1.58 2.7 0 5.11-0.61 7.24-1.82s3.81-2.98 5.03-5.3l-0.57 6.55h7.85l2.14-24.43c0.47-5.39-0.46-9.41-2.79-12.05-2.34-2.65-6.15-3.97-11.43-3.97zm5.58 24.1c-0.28 3.18-1.45 5.78-3.52 7.8-2.06 2.02-4.58 3.03-7.54 3.03-2.16 0-3.87-0.64-5.13-1.9-1.27-1.26-1.81-2.84-1.65-4.73 0.15-1.67 0.75-2.95 1.79-3.84 1.05-0.89 2.72-1.52 5.02-1.9s5.55-0.57 9.76-0.57h1.46l-0.19 2.11z"/>
		<path class="st1" d="m393.36 41.07c-2.91 0-5.59 0.67-8.02 2.02-2.44 1.35-4.38 3.21-5.83 5.58-1.39-5.07-5.13-7.6-11.23-7.6-2.7 0-5.15 0.61-7.36 1.82s-4.03 2.93-5.47 5.14l0.52-5.99h-8.01l-3.45 39.47h8.17l1.95-22.32c0.31-3.56 1.42-6.36 3.33-8.41 1.9-2.05 4.37-3.07 7.39-3.07 2.53 0 4.33 0.77 5.38 2.31s1.43 3.98 1.14 7.32l-2.12 24.18h8.17l1.95-22.32c0.31-3.56 1.42-6.36 3.33-8.41 1.9-2.05 4.34-3.07 7.31-3.07 2.59 0 4.39 0.77 5.42 2.31 1.02 1.54 1.39 3.98 1.1 7.32l-2.12 24.18h8.17l2.15-24.53c0.92-10.62-3.03-15.93-11.87-15.93z"/>
		<path class="st1" d="m440.14 48.11c-3.07-0.7-5.42-1.38-7.06-2.02-1.64-0.65-2.79-1.39-3.45-2.22-0.65-0.84-0.92-1.9-0.81-3.2 0.19-2.21 1.29-3.95 3.29-5.22s4.64-1.9 7.93-1.9c5.77 0 11.1 1.92 16 5.74l4.83-8.98c-2.04-1.99-4.88-3.58-8.52-4.77-3.64-1.18-7.49-1.78-11.53-1.78-4.53 0-8.59 0.77-12.17 2.3-3.58 1.54-6.45 3.65-8.6 6.35s-3.37 5.77-3.68 9.22c-0.27 3.13 0.18 5.76 1.37 7.88 1.19 2.13 3.22 3.92 6.08 5.38s6.76 2.7 11.68 3.72c4.39 0.97 7.42 1.97 9.08 2.99 1.66 1.03 2.41 2.45 2.25 4.29-0.18 2.05-1.28 3.65-3.29 4.81-2.02 1.16-4.8 1.74-8.36 1.74-6.85 0-12.86-1.91-18.02-5.74l-4.83 8.98c2.46 2.05 5.64 3.65 9.53 4.81s7.99 1.74 12.3 1.74c7.44 0 13.37-1.55 17.79-4.65s6.87-7.35 7.34-12.74c0.39-4.47-0.91-7.98-3.89-10.52-2.98-2.52-8.07-4.6-15.26-6.21z"/>
		<path class="st1" d="m487.12 40.83c-2.86 0-5.98 0.47-9.38 1.42-3.4 0.94-6.29 2.12-8.68 3.52l2.52 8.17c2.27-1.24 4.62-2.21 7.05-2.91s4.62-1.05 6.56-1.05c2.53 0 4.27 0.49 5.21 1.46s1.31 2.64 1.1 5.01l-0.13 1.46h-2.1c-5.72 0-10.25 0.38-13.61 1.13-3.36 0.76-5.85 1.97-7.48 3.64s-2.57 3.96-2.83 6.87c-0.21 2.37 0.24 4.53 1.33 6.47 1.1 1.94 2.69 3.45 4.78 4.53s4.48 1.62 7.18 1.62c2.53 0 4.8-0.58 6.79-1.74s3.48-2.76 4.46-4.81l-0.52 5.9h11.57l2.06-23.46c0.51-5.88-0.52-10.22-3.11-13.02-2.58-2.81-6.84-4.21-12.77-4.21zm3.61 24.34c-0.22 2.53-1.13 4.6-2.73 6.19-1.59 1.59-3.58 2.39-5.95 2.39-1.51 0-2.72-0.49-3.63-1.46-0.92-0.97-1.31-2.18-1.18-3.64 0.16-1.83 1.15-3.1 2.96-3.8s4.9-1.05 9.27-1.05h1.38l-0.12 1.37z"/>
		<path class="st1" d="m562.58 40.83c-2.8 0-5.43 0.66-7.86 1.98s-4.4 3.12-5.89 5.38c-1.57-4.91-5.29-7.36-11.17-7.36-2.7 0-5.13 0.54-7.3 1.62s-3.97 2.64-5.39 4.69l0.47-5.34h-11.89l-3.47 39.71h12.21l1.92-21.92c0.25-2.91 1.1-5.18 2.54-6.79 1.44-1.62 3.31-2.43 5.63-2.43 1.99 0 3.36 0.6 4.09 1.78s0.98 3.13 0.74 5.82l-2.06 23.54h12.21l1.92-21.92c0.25-2.91 1.1-5.18 2.54-6.79 1.44-1.62 3.31-2.43 5.63-2.43 1.99 0 3.36 0.6 4.09 1.78s0.98 3.13 0.74 5.82l-2.06 23.54h12.21l2.09-23.94c0.5-5.66-0.24-9.87-2.21-12.62-1.95-2.75-5.2-4.12-9.73-4.12z"/>
		<polygon class="st1" points="580.94 81.51 594.04 81.51 595.18 68.57 582.07 68.57"/>
		<polygon class="st1" points="592.74 63.07 600 24.49 584.96 24.41 585.38 63.07"/>
	

</svg>